# Blender v2.81 (sub 16) OBJ File: 'SuzanneAndSphere.blend'
# www.blender.org
mtllib Sphere.mtl
o Sphere.002_Sphere.008
v 1.882421 0.353460 -2.805872
v 1.882421 -0.146540 -2.442601
v 2.064057 1.613534 -2.104815
v 2.227913 1.471494 -2.330344
v 2.357950 1.250263 -2.509324
v 2.441439 0.971494 -2.624236
v 2.470207 0.662477 -2.663832
v 2.441439 0.353460 -2.624236
v 2.357950 0.074692 -2.509324
v 2.227913 -0.146540 -2.330344
v 2.064057 -0.288579 -2.104815
v 2.176314 1.613534 -1.950307
v 2.441439 1.471494 -2.036451
v 2.651843 1.250263 -2.104815
v 2.786930 0.971494 -2.148708
v 2.833478 0.662477 -2.163832
v 2.786930 0.353460 -2.148708
v 2.651843 0.074692 -2.104815
v 2.441439 -0.146540 -2.036451
v 2.176314 -0.288579 -1.950307
v 2.176314 1.613534 -1.759324
v 2.441439 1.471494 -1.673180
v 2.651843 1.250263 -1.604815
v 2.786930 0.971494 -1.560923
v 2.833478 0.662477 -1.545798
v 2.786930 0.353460 -1.560922
v 2.651843 0.074692 -1.604815
v 2.441439 -0.146540 -1.673180
v 2.176314 -0.288579 -1.759324
v 2.064057 1.613534 -1.604815
v 2.227913 1.471494 -1.379287
v 2.357950 1.250263 -1.200306
v 2.441439 0.971494 -1.085394
v 2.470207 0.662477 -1.045798
v 2.441439 0.353460 -1.085394
v 2.357950 0.074692 -1.200306
v 2.227913 -0.146540 -1.379287
v 2.064057 -0.288579 -1.604815
v 1.882421 1.613534 -1.545798
v 1.882422 1.471494 -1.267030
v 1.882421 1.250263 -1.045798
v 1.882422 0.971494 -0.903758
v 1.882422 0.662477 -0.854815
v 1.882421 0.353460 -0.903758
v 1.882421 0.074692 -1.045798
v 1.882422 -0.146540 -1.267030
v 1.882421 -0.288579 -1.545798
v 1.882421 1.662477 -1.854815
v 1.700786 1.613534 -1.604815
v 1.536930 1.471494 -1.379287
v 1.406893 1.250263 -1.200306
v 1.323404 0.971494 -1.085394
v 1.294636 0.662477 -1.045798
v 1.323404 0.353460 -1.085394
v 1.406893 0.074692 -1.200306
v 1.536930 -0.146540 -1.379287
v 1.700786 -0.288579 -1.604815
v 1.588529 1.613534 -1.759324
v 1.323404 1.471494 -1.673179
v 1.113000 1.250263 -1.604815
v 0.977913 0.971494 -1.560922
v 0.931365 0.662477 -1.545798
v 0.977913 0.353460 -1.560923
v 1.113000 0.074692 -1.604815
v 1.323404 -0.146540 -1.673179
v 1.588529 -0.288579 -1.759324
v 1.588529 1.613534 -1.950307
v 1.323404 1.471494 -2.036451
v 1.113000 1.250263 -2.104815
v 0.977913 0.971494 -2.148708
v 0.931365 0.662477 -2.163832
v 0.977913 0.353460 -2.148708
v 1.113000 0.074692 -2.104815
v 1.323404 -0.146540 -2.036451
v 1.588529 -0.288579 -1.950307
v 1.700786 1.613534 -2.104815
v 1.536930 1.471494 -2.330344
v 1.406893 1.250263 -2.509324
v 1.323404 0.971494 -2.624236
v 1.294636 0.662477 -2.663832
v 1.323404 0.353460 -2.624236
v 1.406893 0.074692 -2.509324
v 1.536930 -0.146540 -2.330344
v 1.700786 -0.288579 -2.104815
v 1.882421 1.613534 -2.163832
v 1.882421 1.471494 -2.442601
v 1.882421 1.250263 -2.663833
v 1.882421 0.971494 -2.805872
v 1.882421 0.662477 -2.854815
v 1.882421 0.074692 -2.663833
v 1.882421 -0.288579 -2.163832
v 1.882421 -0.337523 -1.854815
vt 0.700000 0.200000
vt 0.600000 0.300000
vt 0.600000 0.200000
vt 0.700000 0.600000
vt 0.600000 0.500000
vt 0.700000 0.500000
vt 0.700000 0.900000
vt 0.600000 0.800000
vt 0.700000 0.800000
vt 0.700000 0.100000
vt 0.600000 0.100000
vt 0.700000 0.400000
vt 0.600000 0.400000
vt 0.600000 0.700000
vt 0.700000 0.700000
vt 0.650000 0.000000
vt 0.700000 0.300000
vt 0.600000 0.600000
vt 0.650000 1.000000
vt 0.600000 0.900000
vt 0.500000 0.500000
vt 0.500000 0.800000
vt 0.500000 0.100000
vt 0.500000 0.400000
vt 0.500000 0.700000
vt 0.550000 0.000000
vt 0.500000 0.300000
vt 0.500000 0.600000
vt 0.550000 1.000000
vt 0.500000 0.900000
vt 0.500000 0.200000
vt 0.450000 1.000000
vt 0.400000 0.900000
vt 0.400000 0.200000
vt 0.400000 0.500000
vt 0.400000 0.800000
vt 0.400000 0.100000
vt 0.400000 0.400000
vt 0.400000 0.700000
vt 0.450000 0.000000
vt 0.400000 0.300000
vt 0.400000 0.600000
vt 0.300000 0.300000
vt 0.300000 0.600000
vt 0.350000 1.000000
vt 0.300000 0.900000
vt 0.300000 0.200000
vt 0.300000 0.500000
vt 0.300000 0.800000
vt 0.300000 0.100000
vt 0.300000 0.400000
vt 0.300000 0.700000
vt 0.350000 0.000000
vt 0.200000 0.800000
vt 0.200000 0.700000
vt 0.250000 0.000000
vt 0.200000 0.100000
vt 0.200000 0.300000
vt 0.200000 0.600000
vt 0.250000 1.000000
vt 0.200000 0.900000
vt 0.200000 0.200000
vt 0.200000 0.500000
vt 0.200000 0.400000
vt 0.100000 0.500000
vt 0.100000 0.400000
vt 0.100000 0.800000
vt 0.100000 0.700000
vt 0.150000 0.000000
vt 0.100000 0.100000
vt 0.100000 0.300000
vt 0.100000 0.600000
vt 0.150000 1.000000
vt 0.100000 0.900000
vt 0.100000 0.200000
vt 0.000000 0.800000
vt 0.000000 0.100000
vt 0.000000 0.500000
vt 0.000000 0.400000
vt 0.000000 0.700000
vt 0.050000 0.000000
vt 0.000000 0.300000
vt 0.000000 0.600000
vt 0.050000 1.000000
vt 0.000000 0.900000
vt 0.000000 0.200000
vt 1.000000 0.300000
vt 0.900000 0.200000
vt 1.000000 0.200000
vt 1.000000 0.600000
vt 0.900000 0.500000
vt 1.000000 0.500000
vt 1.000000 0.900000
vt 0.900000 0.800000
vt 1.000000 0.800000
vt 0.900000 0.100000
vt 1.000000 0.100000
vt 1.000000 0.400000
vt 0.900000 0.400000
vt 1.000000 0.700000
vt 0.900000 0.700000
vt 0.950000 0.000000
vt 0.900000 0.300000
vt 0.900000 0.600000
vt 0.950000 1.000000
vt 0.900000 0.900000
vt 0.800000 0.600000
vt 0.850000 1.000000
vt 0.800000 0.900000
vt 0.800000 0.200000
vt 0.800000 0.500000
vt 0.800000 0.800000
vt 0.800000 0.100000
vt 0.800000 0.400000
vt 0.800000 0.700000
vt 0.850000 0.000000
vt 0.800000 0.300000
vt 0.750000 1.000000
vt 0.750000 0.000000
vn 0.0000 -0.7944 -0.6074
vn 0.4815 -0.5735 -0.6627
vn 0.3570 -0.7944 -0.4914
vn 0.0000 0.3003 -0.9538
vn 0.5878 0.0000 -0.8090
vn 0.0000 0.0000 -1.0000
vn 0.0000 0.9416 -0.3367
vn 0.3570 0.7944 -0.4914
vn 0.0000 0.7944 -0.6074
vn 0.0000 -0.9416 -0.3367
vn 0.1979 -0.9416 -0.2724
vn 0.0000 -0.3003 -0.9538
vn 0.5606 -0.3003 -0.7717
vn 0.4815 0.5735 -0.6627
vn 0.0000 0.5735 -0.8192
vn 0.0000 -1.0000 0.0000
vn 0.0000 -0.5735 -0.8192
vn 0.5606 0.3003 -0.7717
vn 0.0000 1.0000 0.0000
vn 0.1979 0.9416 -0.2724
vn 0.9510 0.0000 -0.3090
vn 0.5777 0.7944 -0.1877
vn 0.3202 -0.9416 -0.1040
vn 0.9071 -0.3003 -0.2947
vn 0.7791 0.5735 -0.2531
vn 0.7791 -0.5735 -0.2531
vn 0.9071 0.3003 -0.2947
vn 0.3202 0.9416 -0.1040
vn 0.5777 -0.7944 -0.1877
vn 0.3202 0.9416 0.1040
vn 0.5777 -0.7944 0.1877
vn 0.9510 0.0000 0.3090
vn 0.5777 0.7944 0.1877
vn 0.3202 -0.9416 0.1040
vn 0.9071 -0.3003 0.2947
vn 0.7791 0.5735 0.2531
vn 0.7791 -0.5735 0.2531
vn 0.9071 0.3003 0.2947
vn 0.4815 -0.5735 0.6627
vn 0.5606 0.3003 0.7717
vn 0.1979 0.9416 0.2724
vn 0.3570 -0.7944 0.4914
vn 0.5878 0.0000 0.8090
vn 0.3570 0.7944 0.4914
vn 0.1979 -0.9416 0.2724
vn 0.5606 -0.3003 0.7717
vn 0.4815 0.5735 0.6627
vn 0.0000 0.7944 0.6074
vn 0.0000 0.5735 0.8192
vn 0.0000 -0.9416 0.3367
vn 0.0000 -0.5735 0.8192
vn 0.0000 0.3003 0.9538
vn 0.0000 0.9416 0.3367
vn 0.0000 -0.7944 0.6074
vn 0.0000 0.0000 1.0000
vn 0.0000 -0.3003 0.9538
vn -0.5878 0.0000 0.8090
vn -0.5606 -0.3003 0.7717
vn -0.3570 0.7944 0.4914
vn -0.4815 0.5735 0.6627
vn -0.1979 -0.9416 0.2724
vn -0.4815 -0.5735 0.6627
vn -0.5606 0.3003 0.7717
vn -0.1979 0.9416 0.2724
vn -0.3570 -0.7944 0.4914
vn -0.5777 0.7944 0.1877
vn -0.3202 -0.9416 0.1040
vn -0.9510 0.0000 0.3090
vn -0.9071 -0.3003 0.2947
vn -0.7791 0.5735 0.2531
vn -0.7791 -0.5735 0.2531
vn -0.9071 0.3003 0.2947
vn -0.3202 0.9416 0.1040
vn -0.5777 -0.7944 0.1877
vn -0.5777 -0.7944 -0.1877
vn -0.9510 0.0000 -0.3090
vn -0.5777 0.7944 -0.1877
vn -0.3202 -0.9416 -0.1040
vn -0.9071 -0.3003 -0.2947
vn -0.7791 0.5735 -0.2531
vn -0.7791 -0.5735 -0.2531
vn -0.9071 0.3003 -0.2947
vn -0.3202 0.9416 -0.1040
vn -0.5606 0.3003 -0.7717
vn -0.1979 0.9416 -0.2724
vn -0.3570 -0.7944 -0.4914
vn -0.5878 0.0000 -0.8090
vn -0.3570 0.7944 -0.4914
vn -0.1979 -0.9416 -0.2724
vn -0.5606 -0.3003 -0.7717
vn -0.4815 0.5735 -0.6627
vn -0.4815 -0.5735 -0.6627
usemtl None
s 1
f 2/1/1 9/2/2 10/3/3
f 88/4/4 7/5/5 89/6/6
f 85/7/7 4/8/8 86/9/9
f 91/10/10 10/3/3 11/11/11
f 1/12/12 7/5/5 8/13/13
f 86/9/9 5/14/14 87/15/15
f 92/16/16 91/10/10 11/11/11
f 1/12/12 9/2/2 90/17/17
f 87/15/15 6/18/18 88/4/4
f 85/7/7 48/19/19 3/20/20
f 6/18/18 16/21/21 7/5/5
f 3/20/20 13/22/22 4/8/8
f 10/3/3 20/23/23 11/11/11
f 8/13/13 16/21/21 17/24/24
f 4/8/8 14/25/25 5/14/14
f 92/26/16 11/11/11 20/23/23
f 8/13/13 18/27/26 9/2/2
f 6/18/18 14/25/25 15/28/27
f 3/20/20 48/29/19 12/30/28
f 9/2/2 19/31/29 10/3/3
f 12/30/28 48/32/19 21/33/30
f 18/27/26 28/34/31 19/31/29
f 15/28/27 25/35/32 16/21/21
f 12/30/28 22/36/33 13/22/22
f 20/23/23 28/34/31 29/37/34
f 17/24/24 25/35/32 26/38/35
f 13/22/22 23/39/36 14/25/25
f 92/40/16 20/23/23 29/37/34
f 17/24/24 27/41/37 18/27/26
f 14/25/25 24/42/38 15/28/27
f 26/38/35 36/43/39 27/41/37
f 23/39/36 33/44/40 24/42/38
f 21/33/30 48/45/19 30/46/41
f 27/41/37 37/47/42 28/34/31
f 25/35/32 33/44/40 34/48/43
f 21/33/30 31/49/44 22/36/33
f 28/34/31 38/50/45 29/37/34
f 26/38/35 34/48/43 35/51/46
f 23/39/36 31/49/44 32/52/47
f 92/53/16 29/37/34 38/50/45
f 32/52/47 40/54/48 41/55/49
f 92/56/16 38/50/45 47/57/50
f 35/51/46 45/58/51 36/43/39
f 32/52/47 42/59/52 33/44/40
f 30/46/41 48/60/19 39/61/53
f 36/43/39 46/62/54 37/47/42
f 33/44/40 43/63/55 34/48/43
f 30/46/41 40/54/48 31/49/44
f 37/47/42 47/57/50 38/50/45
f 35/51/46 43/63/55 44/64/56
f 44/64/56 53/65/57 54/66/58
f 41/55/49 50/67/59 51/68/60
f 92/69/16 47/57/50 57/70/61
f 44/64/56 55/71/62 45/58/51
f 41/55/49 52/72/63 42/59/52
f 39/61/53 48/73/19 49/74/64
f 45/58/51 56/75/65 46/62/54
f 42/59/52 53/65/57 43/63/55
f 39/61/53 50/67/59 40/54/48
f 46/62/54 57/70/61 47/57/50
f 49/74/64 59/76/66 50/67/59
f 56/75/65 66/77/67 57/70/61
f 54/66/58 62/78/68 63/79/69
f 51/68/60 59/76/66 60/80/70
f 92/81/16 57/70/61 66/77/67
f 54/66/58 64/82/71 55/71/62
f 51/68/60 61/83/72 52/72/63
f 49/74/64 48/84/19 58/85/73
f 55/71/62 65/86/74 56/75/65
f 52/72/63 62/78/68 53/65/57
f 64/87/71 74/88/75 65/89/74
f 61/90/72 71/91/76 62/92/68
f 58/93/73 68/94/77 59/95/66
f 65/89/74 75/96/78 66/97/67
f 63/98/69 71/91/76 72/99/79
f 60/100/70 68/94/77 69/101/80
f 92/102/16 66/97/67 75/96/78
f 63/98/69 73/103/81 64/87/71
f 60/100/70 70/104/82 61/90/72
f 58/93/73 48/105/19 67/106/83
f 69/101/80 79/107/84 70/104/82
f 67/106/83 48/108/19 76/109/85
f 73/103/81 83/110/86 74/88/75
f 71/91/76 79/107/84 80/111/87
f 67/106/83 77/112/88 68/94/77
f 75/96/78 83/110/86 84/113/89
f 72/99/79 80/111/87 81/114/90
f 69/101/80 77/112/88 78/115/91
f 92/116/16 75/96/78 84/113/89
f 72/99/79 82/117/92 73/103/81
f 81/114/90 90/17/17 82/117/92
f 78/115/91 88/4/4 79/107/84
f 76/109/85 48/118/19 85/7/7
f 83/110/86 90/17/17 2/1/1
f 79/107/84 89/6/6 80/111/87
f 76/109/85 86/9/9 77/112/88
f 83/110/86 91/10/10 84/113/89
f 81/114/90 89/6/6 1/12/12
f 78/115/91 86/9/9 87/15/15
f 92/119/16 84/113/89 91/10/10
f 2/1/1 90/17/17 9/2/2
f 88/4/4 6/18/18 7/5/5
f 85/7/7 3/20/20 4/8/8
f 91/10/10 2/1/1 10/3/3
f 1/12/12 89/6/6 7/5/5
f 86/9/9 4/8/8 5/14/14
f 1/12/12 8/13/13 9/2/2
f 87/15/15 5/14/14 6/18/18
f 6/18/18 15/28/27 16/21/21
f 3/20/20 12/30/28 13/22/22
f 10/3/3 19/31/29 20/23/23
f 8/13/13 7/5/5 16/21/21
f 4/8/8 13/22/22 14/25/25
f 8/13/13 17/24/24 18/27/26
f 6/18/18 5/14/14 14/25/25
f 9/2/2 18/27/26 19/31/29
f 18/27/26 27/41/37 28/34/31
f 15/28/27 24/42/38 25/35/32
f 12/30/28 21/33/30 22/36/33
f 20/23/23 19/31/29 28/34/31
f 17/24/24 16/21/21 25/35/32
f 13/22/22 22/36/33 23/39/36
f 17/24/24 26/38/35 27/41/37
f 14/25/25 23/39/36 24/42/38
f 26/38/35 35/51/46 36/43/39
f 23/39/36 32/52/47 33/44/40
f 27/41/37 36/43/39 37/47/42
f 25/35/32 24/42/38 33/44/40
f 21/33/30 30/46/41 31/49/44
f 28/34/31 37/47/42 38/50/45
f 26/38/35 25/35/32 34/48/43
f 23/39/36 22/36/33 31/49/44
f 32/52/47 31/49/44 40/54/48
f 35/51/46 44/64/56 45/58/51
f 32/52/47 41/55/49 42/59/52
f 36/43/39 45/58/51 46/62/54
f 33/44/40 42/59/52 43/63/55
f 30/46/41 39/61/53 40/54/48
f 37/47/42 46/62/54 47/57/50
f 35/51/46 34/48/43 43/63/55
f 44/64/56 43/63/55 53/65/57
f 41/55/49 40/54/48 50/67/59
f 44/64/56 54/66/58 55/71/62
f 41/55/49 51/68/60 52/72/63
f 45/58/51 55/71/62 56/75/65
f 42/59/52 52/72/63 53/65/57
f 39/61/53 49/74/64 50/67/59
f 46/62/54 56/75/65 57/70/61
f 49/74/64 58/85/73 59/76/66
f 56/75/65 65/86/74 66/77/67
f 54/66/58 53/65/57 62/78/68
f 51/68/60 50/67/59 59/76/66
f 54/66/58 63/79/69 64/82/71
f 51/68/60 60/80/70 61/83/72
f 55/71/62 64/82/71 65/86/74
f 52/72/63 61/83/72 62/78/68
f 64/87/71 73/103/81 74/88/75
f 61/90/72 70/104/82 71/91/76
f 58/93/73 67/106/83 68/94/77
f 65/89/74 74/88/75 75/96/78
f 63/98/69 62/92/68 71/91/76
f 60/100/70 59/95/66 68/94/77
f 63/98/69 72/99/79 73/103/81
f 60/100/70 69/101/80 70/104/82
f 69/101/80 78/115/91 79/107/84
f 73/103/81 82/117/92 83/110/86
f 71/91/76 70/104/82 79/107/84
f 67/106/83 76/109/85 77/112/88
f 75/96/78 74/88/75 83/110/86
f 72/99/79 71/91/76 80/111/87
f 69/101/80 68/94/77 77/112/88
f 72/99/79 81/114/90 82/117/92
f 81/114/90 1/12/12 90/17/17
f 78/115/91 87/15/15 88/4/4
f 83/110/86 82/117/92 90/17/17
f 79/107/84 88/4/4 89/6/6
f 76/109/85 85/7/7 86/9/9
f 83/110/86 2/1/1 91/10/10
f 81/114/90 80/111/87 89/6/6
f 78/115/91 77/112/88 86/9/9
